<svg id="Layer_1" enable-background="new 0 0 256 256" height="512" viewBox="0 0 256 256" width="512" xmlns="http://www.w3.org/2000/svg"><path d="m179.407 62.941h-126.076c-4.179 0-7.566-3.387-7.566-7.566v-29.677c0-4.179 3.387-7.566 7.566-7.566h126.076c4.179 0 7.566 3.387 7.566 7.566v29.678c0 4.178-3.387 7.565-7.566 7.565z" fill="#4671c6"/><path d="m173.695 10.959c-1.48-1.816-4.466-2.959-7.727-2.959h-49.599-49.598c-3.262 0-6.247 1.143-7.727 2.959l-5.846 7.173h63.172 63.172z" fill="#a4c9ff"/><path d="m183.261 248c8.62 0 15.608-7.242 15.608-16.176v-131.745c0-6.087-1.296-12.106-3.804-17.669-3.472-7.702-9.139-14.246-16.314-18.838l-.987-.632h-122.79l-.987.632c-7.174 4.592-12.841 11.136-16.314 18.838-2.508 5.563-3.804 11.582-3.804 17.669v131.745c0 8.934 6.988 16.176 15.608 16.176z" fill="#6bdddd"/><path d="m33.869 118.511h165v71.949h-165z" fill="#e0ebfc"/><g fill="#3762cc"><path d="m179.407 64.941h-126.076c-5.274 0-9.565-4.292-9.565-9.566v-29.677c0-5.275 4.291-9.566 9.565-9.566h126.076c5.275 0 9.566 4.292 9.566 9.566v29.677c.001 5.274-4.29 9.566-9.566 9.566zm-126.076-44.81c-3.068 0-5.565 2.497-5.565 5.566v29.677c0 3.069 2.497 5.566 5.565 5.566h126.076c3.069 0 5.566-2.497 5.566-5.566v-29.676c0-3.069-2.497-5.566-5.566-5.566h-126.076z"/><path d="m179.541 20.131h-126.344c-.772 0-1.476-.444-1.807-1.142-.331-.697-.231-1.523.257-2.122l5.847-7.173c1.857-2.278 5.411-3.694 9.277-3.694h99.197c3.864 0 7.419 1.416 9.277 3.694h.001l5.846 7.173c.487.599.587 1.424.256 2.122s-1.035 1.142-1.807 1.142zm-122.133-4h117.923l-3.186-3.909c-1.084-1.33-3.566-2.223-6.178-2.223h-99.196c-2.611 0-5.093.893-6.176 2.222z"/><path d="m183.261 250h-133.783c-9.709 0-17.608-8.154-17.608-18.176v-131.745c0-6.411 1.339-12.631 3.98-18.49 3.641-8.076 9.54-14.888 17.059-19.701l.987-.632c.322-.206.696-.315 1.078-.315h122.791c.382 0 .756.109 1.078.315l.987.632c7.519 4.813 13.418 11.625 17.059 19.7 2.642 5.859 3.98 12.08 3.98 18.491v131.745c0 10.022-7.899 18.176-17.608 18.176zm-127.702-185.059-.494.316c-6.863 4.393-12.247 10.609-15.568 17.976-2.406 5.338-3.627 11.006-3.627 16.846v131.745c0 7.816 6.104 14.176 13.608 14.176h133.783c7.504 0 13.608-6.359 13.608-14.176v-131.745c0-5.84-1.221-11.508-3.627-16.847-3.321-7.366-8.705-13.582-15.568-17.975l-.494-.316z"/></g><circle cx="116.369" cy="155.471" fill="#4671c6" r="44.127"/><path d="m108.201 193.254c-.738 0-1.488-.163-2.196-.507-2.497-1.215-3.536-4.223-2.32-6.72l12.402-25.496h-7.883c-1.731 0-3.342-.891-4.261-2.359-.918-1.469-1.018-3.306-.262-4.863l15.919-32.789c1.214-2.498 4.217-3.541 6.719-2.327 2.497 1.213 3.54 4.22 2.327 6.718l-12.414 25.566h7.891c1.733 0 3.343.892 4.261 2.361.92 1.469 1.018 3.307.259 4.865l-15.919 32.723c-.869 1.788-2.661 2.828-4.523 2.828z" fill="#ffea92"/><path d="m61.566 169.449c-1.593 0-2.91-1.29-3.008-2.945l-1.334-22.663c-.106-1.804 1.271-3.329 3.008-3.329h2.668c1.737 0 3.114 1.524 3.008 3.329l-1.334 22.663c-.098 1.654-1.415 2.945-3.008 2.945z" fill="#eaa97d"/><path d="m61.566 171.449c-2.646 0-4.845-2.12-5.004-4.827l-1.334-22.664c-.085-1.433.425-2.847 1.397-3.879.953-1.011 2.234-1.567 3.606-1.567h2.669c1.372 0 2.652.557 3.604 1.567.974 1.033 1.483 2.446 1.398 3.879l-1.334 22.664c-.156 2.706-2.354 4.827-5.002 4.827zm-1.334-28.937c-.332 0-.562.169-.695.311-.13.138-.343.438-.316.9l1.334 22.664c.035.596.479 1.063 1.012 1.063.531 0 .976-.466 1.01-1.062l1.335-22.665c.026-.462-.187-.762-.316-.9-.134-.142-.362-.311-.694-.311z" fill="#3762cc"/><path d="m88.428 159.763c-9.474-2.038-19.06.933-26.934 7.391-7.874-6.457-17.46-9.428-26.934-7.391-19.119 4.112-30.536 27.056-25.502 51.246s24.614 40.467 43.732 36.356c3.12-.671 6.033-1.846 8.704-3.444 2.672 1.597 5.585 2.773 8.704 3.444 19.119 4.112 38.698-12.165 43.732-36.356s-6.383-47.134-25.502-51.246z" fill="#f9a7a7"/><path d="m76.103 249.989c-2.127 0-4.243-.221-6.325-.669-2.885-.621-5.666-1.66-8.283-3.094-2.617 1.435-5.398 2.474-8.283 3.094-8.294 1.785-17.149-.028-24.941-5.098-10.543-6.86-18.259-18.817-21.17-32.805-5.249-25.225 6.881-49.273 27.04-53.609 9.295-1.997 18.949.414 27.354 6.798 8.404-6.384 18.063-8.797 27.354-6.798 20.159 4.335 32.289 28.384 27.04 53.609-2.911 13.987-10.627 25.944-21.17 32.805-5.836 3.798-12.271 5.767-18.616 5.767zm-14.609-8.068c.355 0 .71.095 1.026.284 2.536 1.516 5.261 2.595 8.099 3.205 7.344 1.581 14.926.01 21.918-4.541 9.656-6.283 16.74-17.315 19.436-30.268 4.803-23.079-5.948-45.008-23.966-48.883-8.545-1.837-17.513.641-25.244 6.982-.738.604-1.799.604-2.537 0-7.731-6.341-16.698-8.821-25.244-6.982-18.018 3.875-28.769 25.804-23.966 48.883 2.695 12.952 9.779 23.984 19.436 30.268 6.993 4.551 14.572 6.12 21.918 4.541 2.838-.61 5.563-1.689 8.099-3.205.315-.189.67-.284 1.025-.284z" fill="#3762cc"/><path d="m66.124 157.662c14.641 14.776 25.289-3.965 28.283-10.244.506-1.06.066-2.324-.967-2.788-6.245-2.807-26.513-10.243-28.191 10.595-.073.911.249 1.805.875 2.437z" fill="#6bdddd"/><path d="m77.047 165.208c-4.158 0-8.301-2.058-12.344-6.138-1.04-1.049-1.567-2.509-1.446-4.005.543-6.747 2.988-11.451 7.269-13.982 7.755-4.588 19.182-.324 23.735 1.723.982.442 1.73 1.249 2.105 2.271.38 1.035.323 2.202-.154 3.202-2.162 4.534-8.149 15.242-17.029 16.747-.712.121-1.424.182-2.136.182zm-9.502-8.954c3.765 3.799 7.452 5.424 10.97 4.828 7.229-1.225 12.61-11.427 14.087-14.525.033-.069.004-.114.004-.115-3.093-1.385-13.725-5.653-20.044-1.917-3.096 1.831-4.885 5.484-5.318 10.86-.027.327.086.653.301.869z" fill="#3762cc"/><path d="m191.494 16.493h20.495v20.753h-20.495z" fill="#e0ebfc"/><path d="m205.779 8h-4.037-4.037l-6.211 8.493h10.248 10.248z" fill="#e0ebfc"/><path d="m211.989 39.246h-20.495c-1.104 0-2-.896-2-2v-20.753c0-1.104.896-2 2-2h20.495c1.104 0 2 .896 2 2v20.753c0 1.105-.895 2-2 2zm-18.495-4h16.495v-16.753h-16.495z" fill="#3762cc"/><path d="m211.989 18.493h-20.495c-.753 0-1.442-.423-1.783-1.095s-.275-1.478.169-2.086l6.211-8.493c.377-.515.976-.819 1.614-.819h8.074c.638 0 1.238.305 1.614.819l6.21 8.493c.444.608.51 1.415.169 2.086s-1.03 1.095-1.783 1.095zm-16.554-4h12.614l-3.285-4.493h-6.044z" fill="#3762cc"/><path d="m235.013 57.885h-66.543c-8.295 6.684-13.117 16.763-13.117 27.416v37.684c0 2.526 2.048 4.574 4.574 4.574h83.63c2.526 0 4.574-2.048 4.574-4.574v-37.684c0-10.653-4.823-20.732-13.118-27.416z" fill="#e0ebfc"/><path d="m235.013 57.885h-66.543c0-16.251 13.174-29.424 29.424-29.424h7.694c16.252 0 29.425 13.174 29.425 29.424z" fill="#a4c9ff"/><path d="m235.014 59.885h-66.543c-1.104 0-2-.896-2-2 0-17.328 14.097-31.424 31.424-31.424h7.694c17.328 0 31.425 14.097 31.425 31.424 0 1.105-.896 2-2 2zm-64.471-4h62.398c-1.028-14.191-12.903-25.424-27.353-25.424h-7.694c-14.448 0-26.323 11.233-27.351 25.424z" fill="#3762cc"/><path d="m243.557 210.568h-83.63c-2.526 0-4.574-2.048-4.574-4.574v-49.956c0-2.526 2.048-4.574 4.574-4.574h83.63c2.526 0 4.574 2.048 4.574 4.574v49.956c0 2.526-2.048 4.574-4.574 4.574z" fill="#e0ebfc"/><path d="m243.557 129.558h-83.63c-3.625 0-6.574-2.949-6.574-6.574v-37.683c0-11.314 5.053-21.874 13.863-28.973.355-.287.799-.443 1.255-.443h66.543c.457 0 .899.156 1.255.443 8.81 7.099 13.862 17.659 13.862 28.973v37.684c0 3.624-2.949 6.573-6.574 6.573zm-74.369-69.673c-7.531 6.328-11.835 15.55-11.835 25.416v37.684c0 1.419 1.154 2.574 2.574 2.574h83.63c1.419 0 2.574-1.155 2.574-2.574v-37.684c0-9.865-4.304-19.088-11.834-25.416z" fill="#3762cc"/><path d="m243.557 212.567h-83.63c-3.625 0-6.574-2.949-6.574-6.574v-49.956c0-3.625 2.949-6.574 6.574-6.574h83.63c3.625 0 6.574 2.949 6.574 6.574v49.956c0 3.626-2.949 6.574-6.574 6.574zm-83.63-59.103c-1.42 0-2.574 1.155-2.574 2.574v49.956c0 1.419 1.154 2.574 2.574 2.574h83.63c1.419 0 2.574-1.155 2.574-2.574v-49.956c0-1.419-1.155-2.574-2.574-2.574z" fill="#3762cc"/><circle cx="201.742" cy="92.722" fill="#4671c6" r="24.935"/><path d="m197.576 111.937c-.375 0-.756-.083-1.117-.258-1.27-.618-1.798-2.148-1.18-3.418l6.307-12.967h-4.009c-.88 0-1.699-.453-2.167-1.2-.467-.747-.518-1.681-.133-2.473l8.096-16.675c.618-1.27 2.145-1.801 3.417-1.183 1.27.617 1.8 2.146 1.183 3.416l-6.313 13.002h4.013c.881 0 1.7.454 2.167 1.201.468.747.518 1.682.131 2.474l-8.096 16.642c-.44.91-1.352 1.439-2.299 1.439z" fill="#ffea92"/><path d="m160.578 127.558h82.327v23.906h-82.327z" fill="#a4c9ff"/><path d="m160.578 210.568v26.455c0 6.062 4.915 10.977 10.977 10.977h60.373c6.062 0 10.977-4.915 10.977-10.977v-26.455z" fill="#a4c9ff"/><path d="m242.905 153.464h-82.327c-1.104 0-2-.896-2-2v-23.906c0-1.104.896-2 2-2h82.327c1.104 0 2 .896 2 2v23.906c0 1.104-.895 2-2 2zm-80.327-4h78.327v-19.906h-78.327z" fill="#3762cc"/><path d="m231.929 250h-60.373c-7.156 0-12.978-5.821-12.978-12.977v-26.456c0-1.104.896-2 2-2h82.327c1.104 0 2 .896 2 2v26.456c0 7.156-5.821 12.977-12.976 12.977zm-69.351-37.433v24.456c0 4.95 4.027 8.977 8.978 8.977h60.373c4.949 0 8.977-4.027 8.977-8.977v-24.456z" fill="#3762cc"/></svg>